<?xml version="1.0" encoding="UTF-8"?>
<svg id="Capa_2" data-name="Capa 2" xmlns="http://www.w3.org/2000/svg" xmlns:xlink="http://www.w3.org/1999/xlink" viewBox="0 0 128 128">
  <defs>
    <style>
      .cls-1 {
        fill: url(#Degradado_sin_nombre_16);
      }

      .cls-1, .cls-2 {
        stroke-width: 0px;
      }

      .cls-2 {
        fill: #fff;
        fill-rule: evenodd;
      }
    </style>
    <linearGradient id="Degradado_sin_nombre_16" data-name="Degradado sin nombre 16" x1="0" y1="64" x2="128" y2="64" gradientUnits="userSpaceOnUse">
      <stop offset="0" stop-color="#0c69c8"/>
      <stop offset="1" stop-color="#0180c7"/>
    </linearGradient>
  </defs>
  <g id="Capa_1-2" data-name="Capa 1">
    <g>
      <circle class="cls-1" cx="64" cy="64" r="64"/>
      <path id="Oval_8" data-name="Oval 8" class="cls-2" d="m65.97,98.11c-12.6,0-23.23-8.14-26.67-19.33-.11-.4-.17-.73-.23-1.07-.34-2.66-.34-4.46.51-4.13.51.17,1.53,3.45,3,6.1,1.19,2.15,2.94,3.84,3.11,3.79.28-.17-.96-1.75-1.86-3.33-.73-1.3-1.19-2.66-.57-2.83.79-.17,2.49,2.49,4.35,4.58,1.53,1.7,3.33,2.88,3.62,2.77.34-.17-.79-1.53-1.53-2.77-.62-1.07-1.13-1.92-.62-2.2,1.07-.68,4.24,3.62,4.75,3.22.51-.45-1.02-2.37.28-2.6.45-.06,1.36.62,2.94,1.41,1.98,1.41,4.35,2.26,7.01,2.26,6.39,0,11.53-5.03,11.53-11.25,0-4.69-2.94-8.7-7.06-10.4-.34.62-.73,1.24-1.19,1.53-1.36.79-1.19.57-3.39,1.02s-27.01,6.1-27.01,6.1c0,0-1.81.17-2.6-.57-.73-.79,1.41-4.63,1.41-4.63,0,0,6.61-12.04,8.48-13.85.79-.73,7.23-5.03,13.79-10.74,2.15-1.86,5.93-5.37,8.19-8.19,1.13-1.41,1.58-3.11,3.22-3.11,2.43,0,1.92,3,1.81,4.29-.17,1.3-2.71,7.46-2.71,7.46,0,0-.34,1.36-.34,2.03,14.35,1.07,25.66,12.83,25.66,27.18,0,15.03-12.43,27.24-27.86,27.24h0Zm-13.34-39.16c2.26-2.15,1.7-5.82,1.7-5.82,0,0-3.22,2.15-4.52,3.39-1.36,1.3-3.56,4.29-3.56,4.29,0,0,4.13.28,6.39-1.86Z"/>
    </g>
  </g>
</svg>