<?xml version="1.0" encoding="UTF-8"?>
<svg id="Capa_2" data-name="Capa 2" xmlns="http://www.w3.org/2000/svg" xmlns:xlink="http://www.w3.org/1999/xlink" viewBox="0 0 128 128">
  <defs>
    <style>
      .cls-1 {
        fill: url(#Degradado_sin_nombre_12);
      }

      .cls-1, .cls-2 {
        stroke-width: 0px;
      }

      .cls-2 {
        fill: #fff;
        fill-rule: evenodd;
      }
    </style>
    <linearGradient id="Degradado_sin_nombre_12" data-name="Degradado sin nombre 12" x1="0" y1="64" x2="128" y2="64" gradientUnits="userSpaceOnUse">
      <stop offset="0" stop-color="#ce4265"/>
      <stop offset="1" stop-color="#e74347"/>
    </linearGradient>
  </defs>
  <g id="Capa_1-2" data-name="Capa 1">
    <g>
      <circle class="cls-1" cx="64" cy="64" r="64"/>
      <path id="Oval_9" data-name="Oval 9" class="cls-2" d="m64.03,95.99c-16.56,0-29.89-12.15-29.89-27.18,0-7.29,3.11-13.85,8.19-18.71,0,7.06.11,14.35.68,14.24,1.47-.34.28-22.89.06-27.18.73-2.94,3.39-5.14,6.56-5.14h.57c2.43,0,4.52,1.3,5.76,3.22h.73c.34,0,.68,0,.96.06,1.24-1.36,3-2.2,4.97-2.2h.57c2.88,0,5.31,1.75,6.33,4.24h.17c.4,0,.73.06,1.13.11,1.07-.73,2.37-1.19,3.79-1.19h.57c2.94,0,5.48,1.92,6.39,4.63.57.17,1.07.4,1.53.73,1.13-.68,2.37-1.07,3.73-1.07,3.9,0,7.06,3.16,7.06,7.06v21.42c-.11,14.92-13.45,26.96-29.84,26.96h0Z"/>
    </g>
  </g>
</svg>