<?xml version="1.0" encoding="UTF-8"?>
<svg id="Capa_2" data-name="Capa 2" xmlns="http://www.w3.org/2000/svg" xmlns:xlink="http://www.w3.org/1999/xlink" viewBox="0 0 128 128">
  <defs>
    <style>
      .cls-1 {
        fill: url(#Degradado_sin_nombre_8);
      }

      .cls-1, .cls-2 {
        stroke-width: 0px;
      }

      .cls-2 {
        fill: #fff;
      }
    </style>
    <linearGradient id="Degradado_sin_nombre_8" data-name="Degradado sin nombre 8" x1="0" y1="64" x2="128" y2="64" gradientUnits="userSpaceOnUse">
      <stop offset="0" stop-color="#90a7da"/>
      <stop offset="1" stop-color="#a6c2f2"/>
    </linearGradient>
  </defs>
  <g id="Capa_1-2" data-name="Capa 1">
    <g>
      <circle class="cls-1" cx="64" cy="64" r="64"/>
      <path id="Oval_2" data-name="Oval 2" class="cls-2" d="m54.39,91.72c9.32,0,17.35-5.2,20.68-12.6.06-.11-13.28,3.45-12.88,2.2.17-.57,8.36-3.56,14.35-7.01,3.39-2.03,4.97-6.27,4.97-6.27,0,0-5.76,2.83-8.7,3.5-5.88,1.47-11.02,1.3-11.02,1.13,0-.28,8.59-1.92,20.51-9.21,5.65-3.39,7.18-9.32,7.18-9.32,0,0-6.22,3.67-9.95,4.92-8.82,2.88-16.9,3.73-16.9,3.33,0-.85,7.06-2.77,14.64-6.44,3.9-1.86,7.29-4.35,11.25-7.12,6.44-4.52,7.46-12.55,7.46-12.55,0,0-6.33,4.07-9.44,5.43-12.77,5.65-24.07,8.59-32.16,9.21-12.32.96-22.38,9.55-22.38,20.63,0,11.13,10,20.17,22.38,20.17h0Z"/>
    </g>
  </g>
</svg>