<?xml version="1.0" encoding="UTF-8"?>
<svg id="Capa_2" data-name="Capa 2" xmlns="http://www.w3.org/2000/svg" xmlns:xlink="http://www.w3.org/1999/xlink" viewBox="0 0 128 128">
  <defs>
    <style>
      .cls-1 {
        fill: url(#Degradado_sin_nombre_14);
      }

      .cls-1, .cls-2 {
        stroke-width: 0px;
      }

      .cls-2 {
        fill: #fff;
        fill-rule: evenodd;
      }
    </style>
    <linearGradient id="Degradado_sin_nombre_14" data-name="Degradado sin nombre 14" x1="0" y1="64" x2="128" y2="64" gradientUnits="userSpaceOnUse">
      <stop offset="0" stop-color="#516aac"/>
      <stop offset="1" stop-color="#7773d4"/>
    </linearGradient>
  </defs>
  <g id="Capa_1-2" data-name="Capa 1">
    <g>
      <circle class="cls-1" cx="64" cy="64" r="64"/>
      <path id="Oval_10" data-name="Oval 10" class="cls-2" d="m34.16,63.41c0-16.16,13.34-29.27,29.84-29.27s29.84,13.11,29.84,29.27c0,7.52-2.88,14.35-7.63,19.55-2.54,2.77,6.89,3.9,4.8,6.78-1.19,1.58-7.4,3.56-13.85,3.9-5.37.28-11.53.28-13.68,0-16.33-2.15-29.33-14.07-29.33-30.23h0Zm16.33-3.67c0,2.54,2.03,4.58,4.63,4.58s4.69-2.03,4.69-4.58h-3.05c-2.2,0-3.96-1.75-3.96-3.96-1.41.79-2.32,2.26-2.32,3.96Zm26.11,0c0-1.7-.96-3.16-2.37-3.96,0,2.2-1.75,3.96-3.96,3.96h-3c0,2.54,2.09,4.58,4.63,4.58s4.69-2.03,4.69-4.58Z"/>
    </g>
  </g>
</svg>