<?xml version="1.0" encoding="UTF-8"?>
<svg id="Capa_2" data-name="Capa 2" xmlns="http://www.w3.org/2000/svg" xmlns:xlink="http://www.w3.org/1999/xlink" viewBox="0 0 128 128">
  <defs>
    <style>
      .cls-1 {
        fill: url(#Degradado_sin_nombre_18);
      }

      .cls-1, .cls-2 {
        stroke-width: 0px;
      }

      .cls-2 {
        fill: #fff;
        fill-rule: evenodd;
      }
    </style>
    <linearGradient id="Degradado_sin_nombre_18" data-name="Degradado sin nombre 18" x1="0" y1="64" x2="128" y2="64" gradientUnits="userSpaceOnUse">
      <stop offset="0" stop-color="#5fbc51"/>
      <stop offset="1" stop-color="#5ac178"/>
    </linearGradient>
  </defs>
  <g id="Capa_1-2" data-name="Capa 1">
    <g>
      <circle class="cls-1" cx="64" cy="64" r="64"/>
      <path id="Oval" class="cls-2" d="m46,47.13c10.17-10.17,42.67-10.85,42.67-10.85,0,0,4.46,37.58-5.76,47.81-9.04,9.04-23.11,10.06-33.29,3l8.19-10.06,13.11-2.83-10.68-1.07,6.78-6.89,7.74-1.7-6.1-1.81,6.1-11.02-8.7,9.72-3.33-4.75,1.19,7.86-6.1,6.84-2.77-8.65v11.47l-8.48,10.45c-.17-.17-.4-.4-.57-.57-10.17-10.23-10.17-26.73,0-36.96h0Z"/>
    </g>
  </g>
</svg>