<?xml version="1.0" encoding="utf-8"?>
<!-- Generator: Adobe Illustrator 28.0.0, SVG Export Plug-In . SVG Version: 6.00 Build 0)  -->
<svg version="1.1" id="Capa_1" xmlns="http://www.w3.org/2000/svg" xmlns:xlink="http://www.w3.org/1999/xlink" x="0px" y="0px"
	 viewBox="0 0 254 320" style="enable-background:new 0 0 254 320;" xml:space="preserve">
<style type="text/css">
	.st0{opacity:0.4;}
	.st1{fill:#5B6570;}
	.st2{fill:#DC2C2C;}
	.st3{fill:#FCFCFC;}
	.st4{fill:#525B65;}
	.st5{fill:#C62828;}
	.st6{fill:#FBFBFB;}
	.st7{fill:#E2E2E2;}
</style>
<g>
	<path class="st0" d="M117.8,318.9c-14.4-2.2-28.4-5.4-41.3-12.2C27,280.8,0.3,240.6,0,184c0-5.2,2.1-9.6,6.2-13.1
		c2.7-2.3,5.9-3.8,9.4-5.4c-1.1-0.8-1.9-1.4-2.7-2c-5.7-3.9-9.1-9.3-10.3-16.1c-3.3-18.2-3-36.4,2.8-54
		C22.2,42.7,57.5,12.7,109.5,1.8c0,0,24.3-4.5,48.1,0.7c43.6,9.5,78.4,38,94.4,83.4c3.8,10.8,1,19.5-6.2,27.5
		c-5.6,6.2-12.4,11.1-19.5,15.4c-20,11.9-41.8,19.7-64.1,26.2c-12.2,3.6-24.6,6.4-37.9,9.1c1.9,0.4,2.9,0.6,3.9,0.8
		c31.7,4.4,61.7,14,89.9,28.9c10.4,5.5,20.4,11.7,28.5,20.5c7.6,8.1,9.8,16.9,4.8,27.6c-18.4,39.6-48.5,64.9-91,75.1
		c-5,1.2-10.1,1.9-15.1,2.8C145.2,319.6,130.4,320.8,117.8,318.9z M142.1,305.8c1.1,0,2.3,0.1,3.4-0.1c28.3-3.5,52.3-15.6,71.9-36.3
		c4-4.3,7.7-8.8,11.3-14.4c-7.8,2.2-15.1,3.3-22.4,3.8c-1.8,0.1-2.7,0.7-3.4,2.4c-4.4,9.9-11.8,16.4-22.3,19.2
		c-3.7,0.7-7.4,1-11.1,0.1c-11.8-2.6-18.9-10.3-22.1-21.7c-0.7-2.6-1.8-3.6-4.4-4c-13-1.8-25.8-4.5-38.4-7.8
		c-23.7-6.2-46.9-14.1-68.6-25.7c-7-3.8-13.7-8.1-20.6-13.4c0.8,6.3,2.3,11.8,4.3,17.1c13.9,37.4,39.9,62.6,77.5,75.5
		C111.5,305.6,126.7,307.7,142.1,305.8z M142.1,13.9c-2.7-0.2-5.4-0.6-8.1-0.6c-26.3-0.3-50.3,7-71.6,22.5
		C35.6,55.1,19,81.1,14.5,114.3c-0.4,2.8-0.4,5.6-0.6,9c2.6-2.2,4.4-3.9,6.4-5.4c14.5-11.4,31-19.4,48-26.1
		c24.2-9.6,49.3-15.6,74.9-19.8c2.1-0.3,2.7-1.1,2.8-3.1c1.2-18.7,17.7-33.3,37.4-27.2c11.3,4.3,18.3,12.6,21.5,24.2
		c0.5,1.7,1.1,2.4,2.9,2.5c5.7,0.5,11.4,1.1,17,2.3c2.1,0.4,4.1,1.4,6.3,1.2c0.2-1.4-0.7-2.3-1.2-3.2
		c-14.1-23.9-34.5-40.2-60.6-49.2C160.4,16.4,151.4,14.2,142.1,13.9z M205.2,83.1c-0.4,1.3-0.8,2.6-1.2,3.9c-5.4,15-20.9,23-35.6,18
		c-8.8-3-15.1-9-19-17.4c-0.8-1.7-1.6-2.8-4-2.4c-24,3.9-47.6,9.6-70.4,18.4c-16,6.2-31.5,13.4-45.3,23.9c-4.5,3.4-8.6,7.2-11.7,12
		c-3.4,5.3-2.4,10.2,3,13.6c3.5,2.1,7.3,3.6,11.3,4.3c17.5,3.5,34.9,1.7,52.3-0.2c12.2-1.4,24.2-3.9,36.2-6c0.4-0.2,0.8-0.4,1.3-0.5
		c0.4,0,0.8,0,1.2-0.1c8.3-1.7,16.6-3.5,24.9-5.6c24.6-6.4,48.5-14.6,70.6-27.4c7.2-4.2,14.1-8.8,19.2-15.6
		c4.7-6.3,1.8-10.8-3.6-13.7c-8.3-4.4-17.3-5.4-26.4-6.2C206.9,81.7,205.6,81.5,205.2,83.1z M131.5,178.6c-0.5,0-1,0-1.6-0.1
		c-17-3.1-34.1-4.7-51.3-5.4c-16.2-0.6-32.4-0.9-48.4,2c-4.3,0.8-8.6,1.7-12.5,3.6c-4.3,2.1-5.1,4.7-3,8.9c1.6,3.1,3.8,5.7,6.4,8
		c10.7,9.3,23.2,15.8,36,21.4c25.3,11.2,51.8,18.5,79,23.4c5.3,1,10.6,1.7,16,2.5c4.7,0.7,6.4,2.6,7.1,7.2c0.5,3.4,0.6,6.9,3,9.7
		c0.7,2,2,3.6,3.7,4.9c7,5.1,15.7,3.6,21.5-3.3c3.2-3.8,4.2-8.5,6.1-12.8c2.4-2.3,5.5-2.8,8.6-2.7c3.9-0.4,7.9-0.6,11.7-1.2
		c8.2-1.3,16.4-2.9,23.3-8.1c4.2-3.1,4.7-6.7,1.7-11c-2.7-3.8-6.2-6.8-9.8-9.5c-13.2-9.8-27.9-16.7-43.2-22.6
		C168.2,186.6,150.1,181.6,131.5,178.6z M192.7,75.1c-0.2-7.7-3-14.2-9.4-18.7c-7.7-5.4-17.3-3-21.8,5.3c-5.3,9.7-1.7,23.3,7.8,29
		c7.4,4.5,16,2.4,20.5-5C191.8,82.5,192.8,78.9,192.7,75.1z"/>
	<path class="st1" d="M202,245.8c-3.2-0.1-6.2,0.4-8.6,2.7c-6.9,2.1-14.1,3.3-21.3,3.6c-7.6,0.3-7.6,0.2-10,7.6
		c-2.4-2.8-2.5-6.3-3-9.7c-0.6-4.6-2.4-6.5-7.1-7.2c-5.3-0.8-10.7-1.5-16-2.5c-27.2-4.9-53.7-12.2-79-23.4
		c-12.8-5.7-25.3-12.2-36-21.4c-2.6-2.3-4.8-4.8-6.4-8c-2.1-4.2-1.2-6.8,3-8.9c4-1.9,8.2-2.8,12.5-3.6c16.1-2.9,32.3-2.6,48.4-2
		c17.2,0.7,34.3,2.3,51.3,5.4c0.5,0.1,1,0.1,1.6,0.1c0.6,1.5,2.1,1.5,3.4,1.9c15.9,5,31.3,11,46,19c9.6,5.2,18.8,10.9,26.5,18.9
		c8.7,9.2,7.9,17.8-2.6,24.9C203.7,244.1,202.5,244.5,202,245.8z"/>
	<path class="st1" d="M123.4,150.4c-0.4,0-0.8,0-1.2,0.1c-0.8-0.6-1.1-0.2-1.3,0.5c-12,2.1-24,4.6-36.2,6c-17.4,2-34.9,3.7-52.3,0.2
		c-4-0.8-7.8-2.2-11.3-4.3c-5.4-3.3-6.4-8.2-3-13.6c3.1-4.8,7.2-8.5,11.7-12C43.5,116.9,59,109.6,75,103.5
		c22.8-8.7,46.3-14.4,70.4-18.4c2.3-0.4,3.1,0.7,4,2.4c3.9,8.4,10.2,14.4,19,17.4c14.6,5,30.2-3,35.6-18c0.5-1.3,0.8-2.6,1.2-3.9
		c7.7,3.3,10.6,11.3,7.1,18.8c-1.7,3.7-4.3,6.7-7.2,9.3c-7.3,6.8-15.8,12.1-24.7,16.7c-17.4,8.9-35.7,15.3-54.3,20.8
		C125.1,149,123.8,149.1,123.4,150.4z"/>
	<path class="st2" d="M183.3,41.6c-19.8-6.1-36.2,8.5-37.4,27.2c-0.1,2-0.7,2.8-2.8,3.1c-25.6,4.2-50.7,10.2-74.9,19.8
		c-17.1,6.7-33.5,14.7-48,26.1c-2,1.5-3.8,3.2-6.4,5.4c0.2-3.4,0.3-6.2,0.6-9C19,81.1,35.6,55.1,62.4,35.7
		C83.7,20.3,107.7,13,134,13.2c2.7,0,5.4,0.4,8.1,0.6c0.3,1.2,1.5,1.4,2.4,1.7c11.3,4.6,21.8,10.7,31.1,18.6
		C178.3,36.4,181.6,38.3,183.3,41.6z"/>
	<path class="st3" d="M142.1,305.8c-15.5,1.9-30.6-0.2-45.1-5.2c-37.6-12.9-63.6-38.1-77.5-75.5c-2-5.3-3.5-10.7-4.3-17.1
		c6.8,5.4,13.5,9.7,20.6,13.4c21.7,11.6,44.9,19.5,68.6,25.7c12.7,3.3,25.4,6,38.4,7.8c2.6,0.4,3.7,1.4,4.4,4
		c3.2,11.3,10.3,19,22.1,21.7c3.7,0.8,7.4,0.6,11.1-0.1c-0.3,0.9-0.7,1.7-1.5,2.3c-9.7,8.5-20.5,15.1-32.2,20.3
		C145.1,303.8,143.1,304,142.1,305.8z"/>
	<path class="st4" d="M202,245.8c0.5-1.3,1.7-1.8,2.7-2.5c10.5-7.1,11.4-15.7,2.6-24.9c-7.6-8-16.8-13.8-26.5-18.9
		c-14.7-7.9-30.1-13.9-46-19c-1.2-0.4-2.8-0.4-3.4-1.9c18.6,2.9,36.7,8,54.2,14.8c15.2,5.9,30,12.9,43.2,22.6
		c3.7,2.7,7.2,5.7,9.8,9.5c3,4.3,2.5,7.9-1.7,11c-6.9,5.1-15.1,6.7-23.3,8.1C209.9,245.3,205.9,245.5,202,245.8z"/>
	<path class="st4" d="M123.4,150.4c0.4-1.3,1.7-1.4,2.8-1.7c18.7-5.5,37-11.9,54.3-20.8c8.9-4.6,17.3-9.9,24.7-16.7
		c2.8-2.6,5.5-5.7,7.2-9.3c3.5-7.5,0.6-15.5-7.1-18.8c0.4-1.6,1.7-1.3,2.8-1.2c9.1,0.8,18.2,1.8,26.4,6.2c5.5,2.9,8.3,7.4,3.6,13.7
		c-5.1,6.8-12,11.5-19.2,15.6c-22.1,12.8-46,21-70.6,27.4C140,146.9,131.7,148.7,123.4,150.4z"/>
	<path class="st5" d="M183.3,41.6c-1.7-3.4-5-5.2-7.7-7.5c-9.3-7.8-19.8-13.9-31.1-18.6c-0.9-0.4-2.1-0.5-2.4-1.7
		c9.3,0.3,18.3,2.5,27.1,5.5c26.1,9.1,46.5,25.3,60.6,49.2c0.6,0.9,1.4,1.8,1.2,3.2c-2.2,0.2-4.2-0.8-6.3-1.2
		c-5.6-1.2-11.3-1.8-17-2.3c-1.8-0.1-2.4-0.8-2.9-2.5C201.7,54.2,194.7,46,183.3,41.6z"/>
	<path class="st6" d="M192.7,75.1c0.1,3.9-0.9,7.4-2.9,10.7c-4.5,7.4-13.2,9.5-20.5,5c-9.5-5.8-13.1-19.3-7.8-29
		c4.5-8.3,14.1-10.7,21.8-5.3C189.7,60.9,192.5,67.4,192.7,75.1z"/>
	<path class="st7" d="M142.1,305.8c1-1.9,3-2,4.7-2.8c11.7-5.2,22.6-11.8,32.2-20.3c0.7-0.7,1.2-1.4,1.5-2.3
		c10.6-2.8,17.9-9.3,22.3-19.2c0.7-1.7,1.7-2.2,3.4-2.4c7.3-0.6,14.6-1.6,22.4-3.8c-3.5,5.6-7.2,10.1-11.3,14.4
		c-19.6,20.8-43.6,32.9-71.9,36.3C144.4,305.9,143.3,305.8,142.1,305.8z"/>
	<path class="st4" d="M162.1,259.8c2.4-7.4,2.4-7.3,10-7.6c7.2-0.3,14.3-1.5,21.3-3.6c-1.8,4.4-2.9,9-6.1,12.8
		c-5.8,6.9-14.6,8.4-21.5,3.3C164,263.4,162.7,261.8,162.1,259.8z"/>
	<path class="st4" d="M120.9,151c0.2-0.7,0.5-1.2,1.3-0.5C121.7,150.6,121.3,150.8,120.9,151z"/>
</g>
</svg>
