<?xml version="1.0" encoding="UTF-8"?>
<svg id="Capa_2" data-name="Capa 2" xmlns="http://www.w3.org/2000/svg" xmlns:xlink="http://www.w3.org/1999/xlink" viewBox="0 0 128 128">
  <defs>
    <style>
      .cls-1 {
        fill: url(#Degradado_sin_nombre_7);
      }

      .cls-1, .cls-2 {
        stroke-width: 0px;
      }

      .cls-2 {
        fill: #fff;
        fill-rule: evenodd;
      }
    </style>
    <linearGradient id="Degradado_sin_nombre_7" data-name="Degradado sin nombre 7" x1="0" y1="64" x2="128" y2="64" gradientUnits="userSpaceOnUse">
      <stop offset="0" stop-color="#a864c7"/>
      <stop offset="1" stop-color="#c261d4"/>
    </linearGradient>
  </defs>
  <g id="Capa_1-2" data-name="Capa 1">
    <g>
      <circle class="cls-1" cx="64" cy="64" r="64"/>
      <path id="Oval_3" data-name="Oval 3" class="cls-2" d="m49.7,95.99c-4.63,0-8.42-5.09-8.42-11.3,0-1.47.23-2.83.57-4.07-6.05-5.14-9.83-12.38-9.83-20.4,0-15.6,14.3-28.2,31.99-28.2s31.99,12.6,31.99,28.2c0,8.31-4.01,15.77-10.51,20.97.28,1.07.45,2.26.45,3.5,0,6.22-3.79,11.3-8.42,11.3-2.77,0-5.2-1.81-6.72-4.52-1.58,2.71-4.01,4.52-6.78,4.52-3,0-5.65-2.15-7.12-5.37-1.47,3.22-4.13,5.37-7.18,5.37Zm32.83-35.21c0-7.91-8.48-14.3-18.93-14.3s-18.93,6.39-18.93,14.3,8.48,14.35,18.93,14.35,18.93-6.44,18.93-14.35Z"/>
    </g>
  </g>
</svg>