<?xml version="1.0" encoding="UTF-8"?>
<svg id="Capa_2" data-name="Capa 2" xmlns="http://www.w3.org/2000/svg" xmlns:xlink="http://www.w3.org/1999/xlink" viewBox="0 0 128 128">
  <defs>
    <style>
      .cls-1 {
        fill: #fff;
      }

      .cls-1, .cls-2 {
        stroke-width: 0px;
      }

      .cls-2 {
        fill: url(#Degradado_sin_nombre_4);
      }
    </style>
    <linearGradient id="Degradado_sin_nombre_4" data-name="Degradado sin nombre 4" x1="0" y1="64" x2="128" y2="64" gradientUnits="userSpaceOnUse">
      <stop offset="0" stop-color="#f66f71"/>
      <stop offset="1" stop-color="#fe9f92"/>
    </linearGradient>
  </defs>
  <g id="Capa_1-2" data-name="Capa 1">
    <g>
      <circle class="cls-2" cx="64" cy="64" r="64"/>
      <path id="Path_9" data-name="Path 9" class="cls-1" d="m87.36,83.71s-7.52,6.05-22.49,3.56c-11.36-1.92-17.46-14.47-17.46-21.19,0-15.94,11.81-19.61,19.84-19.61s13.17,7.8,13.17,13.85-4.24,11.3-10.91,11.3-8.59-4.63-8.59-8.93,3.5-5.82,6.67-5.82,4.24,2.71,4.24,5.03-1.81,3.16-3.33,3.16-1.64-.79-2.2-1.58c-.57-.79.73-3.79-1.41-3.79s-2.54,3.45-2.54,3.45c0,0,.73,6.72,7.18,6.61,6.5-.17,9.55-5.14,8.65-10.06-.9-4.92-5.71-10.17-14.07-9.1-8.42,1.02-11.87,9.55-10.34,18.59,1.53,9.1,12.38,14.35,20.97,12.43,8.53-1.86,17.01-8.08,17.01-23.74s-13.56-25.15-29.78-23.57c-16.22,1.53-26.28,15.71-25.6,32.72.62,17.01,16.78,26.28,30.46,26.79,13.62.45,22.04-7.46,22.04-7.46,0,0,1.86-1.64,1.13-3-.73-1.3-2.6.34-2.6.34h0Z"/>
    </g>
  </g>
</svg>