<?xml version="1.0" encoding="UTF-8"?>
<svg id="Capa_2" data-name="Capa 2" xmlns="http://www.w3.org/2000/svg" xmlns:xlink="http://www.w3.org/1999/xlink" viewBox="0 0 128 128">
  <defs>
    <style>
      .cls-1 {
        fill: url(#Degradado_sin_nombre_3);
      }

      .cls-1, .cls-2 {
        stroke-width: 0px;
      }

      .cls-2 {
        fill: #fff;
      }
    </style>
    <linearGradient id="Degradado_sin_nombre_3" data-name="Degradado sin nombre 3" x1="0" y1="64" x2="128" y2="64" gradientUnits="userSpaceOnUse">
      <stop offset="0" stop-color="#c5b489"/>
      <stop offset="1" stop-color="#d7cd90"/>
    </linearGradient>
  </defs>
  <g id="Capa_1-2" data-name="Capa 1">
    <g>
      <circle class="cls-1" cx="64" cy="64" r="64"/>
      <path id="Path_8" data-name="Path 8" class="cls-2" d="m34.22,76.9c0,.34.23.62.51.73l12.15,3.96c.23.06.51.06.68-.11l28.54-19.67c.17-.11.28-.34.34-.51l2.94-19.78c.06-.45-.34-.85-.79-.85h-24.53c-.23,0-.45.06-.62.28l-19.04,22.94c-.11.17-.17.34-.17.51v12.49Zm18.42,5.93l13.9,4.52c.23.06.45.06.68-.11l15.99-11.47c.34-.28.45-.73.23-1.07l-5.54-8.19c-.23-.4-.73-.45-1.07-.23l-24.19,16.56Zm27.69-20.4c-.06.23,0,.45.17.62l6.56,8.99c.28.34.79.4,1.13.17l5.31-4.13c.23-.23.34-.57.23-.85l-8.25-26.11c-.06-.34-.4-.51-.73-.51h-.06c-.34,0-.62.23-.68.57l-3.67,21.25Z"/>
    </g>
  </g>
</svg>